# xmcd CD database file
#
# Track frame offsets:
#	150
#	20155
#	40235
#	54907
#	66657
#	79355
#	90047
#	101887
#	112142
#	123842
#	133770
#	149110
#	159625
#	177887
#	190035
#
# Disc length: 2852 seconds
#
# Revision: 3
# Processed by: cddbd v1.5.2PL0 Copyright (c) Steve Scherf et al.
# Submitted via: CDex 1.51
#
DISCID=da0b220f
DTITLE=Leon Russell - Hank Wilson's Back
DYEAR=1900
DGENRE=Rock
TTITLE0=Roll In My Sweet Baby's Arms
TTITLE1=She Thinks I Still Care
TTITLE2=I'm So Lonesome I Could Cry
TTITLE3=I'll Sail My Ship Alone
TTITLE4=Jambalya (On The Bayou)
TTITLE5=A Six Pack To Go
TTITLE6=The Battle Of New Orleans
TTITLE7=Uncle Pen
TTITLE8=Am I That Easy To Forget?
TTITLE9=Truck Drivin' Man
TTITLE10=The Window Up Above
TTITLE11=Lost Highway
TTITLE12=Goodnight Irene
TTITLE13=Hey Good Lookin'
TTITLE14=In The Jailhouse Now
EXTD=
EXTT0=
EXTT1=
EXTT2=
EXTT3=
EXTT4=
EXTT5=
EXTT6=
EXTT7=
EXTT8=
EXTT9=
EXTT10=
EXTT11=
EXTT12=
EXTT13=
EXTT14=
PLAYORDER=
